<svg width="1200" height="680" viewBox="0 0 1200 680" fill="none" xmlns="http://www.w3.org/2000/svg">
  <rect width="1200" height="680" fill="#F9FAFB"/>
  <rect x="24" y="24" width="1152" height="632" rx="16" fill="white" stroke="#E5E7EB" stroke-width="2"/>
  <rect x="56" y="56" width="1088" height="70" rx="12" fill="white" stroke="#E5E7EB"/>
  <rect x="84" y="84" width="380" height="14" rx="7" fill="#374151"/>
  <rect x="982" y="76" width="134" height="32" rx="8" fill="#D97706"/>
  <rect x="56" y="148" width="1088" height="110" rx="12" fill="#FFFBEB" stroke="#FDE68A"/>
  <circle cx="100" cy="202" r="8" fill="#9CA3AF"/>
  <circle cx="268" cy="202" r="8" fill="#2563EB"/>
  <circle cx="436" cy="202" r="8" fill="#4F46E5"/>
  <circle cx="604" cy="202" r="8" fill="#D97706"/>
  <circle cx="772" cy="202" r="8" fill="#D97706"/>
  <circle cx="940" cy="202" r="8" fill="#16A34A"/>
  <rect x="108" y="196" width="144" height="3" fill="#D1D5DB"/>
  <rect x="276" y="196" width="144" height="3" fill="#93C5FD"/>
  <rect x="444" y="196" width="144" height="3" fill="#A5B4FC"/>
  <rect x="612" y="196" width="144" height="3" fill="#FCD34D"/>
  <rect x="780" y="196" width="144" height="3" fill="#FCD34D"/>
  <rect x="56" y="282" width="1088" height="342" rx="12" fill="white" stroke="#E5E7EB"/>
  <rect x="84" y="314" width="216" height="14" rx="7" fill="#374151"/>
  <rect x="84" y="352" width="1028" height="2" fill="#E5E7EB"/>
  <rect x="84" y="376" width="1028" height="48" rx="10" fill="#F9FAFB" stroke="#E5E7EB"/>
  <rect x="108" y="392" width="140" height="16" rx="8" fill="#111827"/>
  <rect x="300" y="390" width="120" height="20" rx="10" fill="#DBEAFE"/>
  <rect x="456" y="390" width="156" height="20" rx="10" fill="#FEF3C7"/>
  <rect x="84" y="440" width="1028" height="48" rx="10" fill="#F9FAFB" stroke="#E5E7EB"/>
  <rect x="108" y="456" width="140" height="16" rx="8" fill="#111827"/>
  <rect x="300" y="454" width="120" height="20" rx="10" fill="#C7D2FE"/>
  <rect x="456" y="454" width="156" height="20" rx="10" fill="#FEE2E2"/>
  <rect x="84" y="504" width="1028" height="48" rx="10" fill="#F9FAFB" stroke="#E5E7EB"/>
  <rect x="108" y="520" width="140" height="16" rx="8" fill="#111827"/>
  <rect x="300" y="518" width="120" height="20" rx="10" fill="#DCFCE7"/>
  <rect x="456" y="518" width="156" height="20" rx="10" fill="#D1FAE5"/>
</svg>
