<svg width="1200" height="680" viewBox="0 0 1200 680" fill="none" xmlns="http://www.w3.org/2000/svg">
  <rect width="1200" height="680" fill="#F9FAFB"/>
  <rect x="24" y="24" width="1152" height="632" rx="16" fill="white" stroke="#E5E7EB" stroke-width="2"/>
  <rect x="56" y="56" width="1088" height="70" rx="12" fill="white" stroke="#E5E7EB"/>
  <rect x="84" y="84" width="260" height="14" rx="7" fill="#374151"/>
  <rect x="972" y="76" width="144" height="32" rx="8" fill="#D97706"/>
  <rect x="56" y="150" width="340" height="184" rx="12" fill="#DCFCE7"/>
  <rect x="84" y="182" width="176" height="14" rx="7" fill="#166534"/>
  <rect x="84" y="224" width="228" height="24" rx="8" fill="#16A34A"/>
  <rect x="84" y="260" width="180" height="12" rx="6" fill="#22C55E"/>
  <rect x="416" y="150" width="356" height="184" rx="12" fill="#DBEAFE"/>
  <rect x="444" y="182" width="200" height="14" rx="7" fill="#1D4ED8"/>
  <rect x="444" y="224" width="228" height="24" rx="8" fill="#2563EB"/>
  <rect x="444" y="260" width="180" height="12" rx="6" fill="#60A5FA"/>
  <rect x="792" y="150" width="352" height="184" rx="12" fill="#FEE2E2"/>
  <rect x="820" y="182" width="200" height="14" rx="7" fill="#991B1B"/>
  <rect x="820" y="224" width="228" height="24" rx="8" fill="#DC2626"/>
  <rect x="820" y="260" width="180" height="12" rx="6" fill="#F87171"/>
  <rect x="56" y="358" width="1088" height="266" rx="12" fill="white" stroke="#E5E7EB"/>
  <rect x="84" y="390" width="228" height="14" rx="7" fill="#374151"/>
  <rect x="84" y="428" width="1028" height="2" fill="#E5E7EB"/>
  <rect x="84" y="452" width="1028" height="44" rx="10" fill="#F9FAFB" stroke="#E5E7EB"/>
  <rect x="108" y="466" width="140" height="14" rx="7" fill="#111827"/>
  <rect x="300" y="462" width="90" height="22" rx="11" fill="#E5E7EB"/>
  <rect x="412" y="462" width="90" height="22" rx="11" fill="#DBEAFE"/>
  <rect x="524" y="462" width="90" height="22" rx="11" fill="#DCFCE7"/>
  <rect x="636" y="462" width="90" height="22" rx="11" fill="#FEE2E2"/>
  <rect x="84" y="510" width="1028" height="44" rx="10" fill="#F9FAFB" stroke="#E5E7EB"/>
  <rect x="108" y="524" width="140" height="14" rx="7" fill="#111827"/>
  <rect x="300" y="520" width="90" height="22" rx="11" fill="#E5E7EB"/>
  <rect x="412" y="520" width="90" height="22" rx="11" fill="#DBEAFE"/>
  <rect x="524" y="520" width="90" height="22" rx="11" fill="#DCFCE7"/>
  <rect x="636" y="520" width="90" height="22" rx="11" fill="#FEE2E2"/>
</svg>
